<?xml version="1.0" encoding="UTF-8" standalone="no"?>
<!-- Created with Inkscape (http://www.inkscape.org/) -->

<svg
   width="128.10103mm"
   height="77.89341mm"
   viewBox="0 0 128.10103 77.89341"
   version="1.1"
   id="svg1"
   xml:space="preserve"
   inkscape:version="1.4.2 (ebf0e940, 2025-05-08)"
   sodipodi:docname="cloudmcp-v1.svg"
   inkscape:export-filename="cloudmcp-v1.png"
   inkscape:export-xdpi="169.89113"
   inkscape:export-ydpi="169.89113"
   xmlns:inkscape="http://www.inkscape.org/namespaces/inkscape"
   xmlns:sodipodi="http://sodipodi.sourceforge.net/DTD/sodipodi-0.dtd"
   xmlns="http://www.w3.org/2000/svg"
   xmlns:svg="http://www.w3.org/2000/svg"><sodipodi:namedview
     id="namedview1"
     pagecolor="#ffffff"
     bordercolor="#000000"
     borderopacity="0.25"
     inkscape:showpageshadow="2"
     inkscape:pageopacity="0.0"
     inkscape:pagecheckerboard="0"
     inkscape:deskcolor="#d1d1d1"
     inkscape:document-units="mm"
     inkscape:zoom="0.56097534"
     inkscape:cx="40.108715"
     inkscape:cy="273.63057"
     inkscape:window-width="1384"
     inkscape:window-height="718"
     inkscape:window-x="0"
     inkscape:window-y="38"
     inkscape:window-maximized="0"
     inkscape:current-layer="layer1"
     inkscape:export-bgcolor="#ffffff00" /><defs
     id="defs1" /><g
     inkscape:label="Layer 1"
     inkscape:groupmode="layer"
     id="layer1"
     transform="translate(-36.598193,-67.529278)"><path
       style="fill:#147eb3;fill-opacity:1"
       d="m 57.098475,145.21695 c -2.78982,-0.31191 -6.139751,-1.13404 -8.447419,-2.07316 -4.161637,-1.69359 -8.178161,-5.3229 -10.020903,-9.05484 -1.677554,-3.39739 -2.026099,-5.02554 -2.031901,-9.49155 -0.0054,-4.18911 0.369272,-6.25316 1.739512,-9.58182 2.212617,-5.375 7.540845,-10.60178 12.37809,-12.14243 2.470088,-0.78671 6.245658,-0.7807 9.392998,0.015 2.577409,0.65158 5.784955,1.9255 5.927903,2.35434 0.04995,0.14986 -2.387208,1.91568 -5.415915,3.92404 -3.294503,2.1846 -6.14449,4.29041 -7.094239,5.24179 -5.565544,5.57516 -5.008777,14.29308 1.119626,17.53123 4.675159,2.47028 14.2135,1.94487 22.325423,-1.22977 5.761588,-2.25483 9.423617,-5.11654 20.872657,-16.31106 12.132183,-11.86247 17.600663,-16.613377 23.060843,-20.034788 l 2.29106,-1.435604 -0.59793,-1.47118 c -1.81163,-4.457425 -5.419,-8.273283 -9.2925,-9.829582 -4.76204,-1.913291 -10.05076,-1.917572 -14.575148,-0.0118 L 97.103416,82.301185 94.629591,80.4349 c -1.360604,-1.026457 -3.811833,-2.552846 -5.447175,-3.391975 -1.635343,-0.83913 -2.974796,-1.612184 -2.976563,-1.717899 -0.0018,-0.105714 0.859991,-0.914746 1.915017,-1.797847 2.305491,-1.929794 6.840735,-4.237605 9.855728,-5.0152 8.691652,-2.241659 18.668152,-0.583138 25.929162,4.310537 2.01218,1.356138 5.96494,5.328288 7.62484,7.662237 1.78906,2.515569 3.72046,6.335032 4.55184,9.001564 l 0.7063,2.265349 1.43796,0.727541 c 1.81603,0.918823 3.74192,2.756905 5.11575,4.882491 0.58769,0.90926 1.06852,1.726352 1.06852,1.81576 0,0.08941 -0.90536,0.11684 -2.01191,0.06096 -2.95092,-0.149015 -4.80425,0.352799 -8.83601,2.392482 l -3.57187,1.80702 -1.27464,-0.69127 c -0.70104,-0.38019 -1.3316,-0.63429 -1.40123,-0.56466 -0.23956,0.23956 3.73486,2.70053 4.3641,2.70226 0.82378,0.002 1.32713,0.75711 0.92741,1.3908 -0.41821,0.66299 -1.47955,0.58763 -1.83757,-0.13047 -0.44011,-0.88278 -1.206,-1.65547 -1.6409,-1.65547 -0.21117,0 -0.85598,0.37386 -1.43292,0.83081 l -1.04898,0.8308 1.13214,1.15357 1.13214,1.15357 h 2.63606 c 2.03097,0 2.74207,-0.0959 3.0979,-0.41797 0.68511,-0.62002 1.62491,-0.0621 1.51391,0.89878 -0.0678,0.58659 -0.23129,0.72421 -0.9419,0.79272 -0.48301,0.0466 -0.8599,-0.0404 -0.8599,-0.19844 0,-0.18136 -1.01474,-0.28134 -2.85533,-0.28134 h -2.85532 l -1.16851,-1.19063 c -0.64268,-0.65484 -1.29255,-1.18578 -1.44415,-1.17987 -0.15161,0.006 -0.66243,0.34187 -1.13517,0.74656 l -0.85952,0.73581 0.93285,1.08982 c 2.08615,2.43721 7.38952,6.22802 10.56638,7.55278 2.16162,0.9014 2.09735,0.85971 1.87645,1.21714 -0.22082,0.35729 -2.88003,-0.64621 -5.17434,-1.95262 -2.10809,-1.20037 -5.10254,-3.45944 -7.32557,-5.52654 -0.91695,-0.85263 -1.81679,-1.49284 -1.99963,-1.42268 -0.41326,0.15858 -8.6139,7.60446 -14.62221,13.27642 -6.20588,5.85848 -13.270672,12.15024 -15.696835,13.97927 -3.911518,2.94881 -10.742744,5.99942 -16.315129,7.28583 -5.645795,1.30335 -14.221544,1.90872 -19.182291,1.35409 z m 21.99429,-4.70483 c 0.534589,-0.7208 3.529338,-1.72127 4.153103,-1.38744 0.615249,0.32927 1.633856,-0.30423 1.633856,-1.01614 0,-1.19002 -1.842255,-1.45727 -2.11199,-0.30637 -0.193498,0.82561 -3.175604,2.03888 -3.96845,1.61456 -0.272695,-0.14594 -0.683028,-0.19351 -0.911851,-0.1057 -0.41423,0.15896 -0.575559,1.17824 -0.239653,1.51415 0.336086,0.33608 1.083665,0.17412 1.444985,-0.31306 z m 4.124939,-1.96895 c -0.07761,-0.20224 -0.04507,-0.52309 0.0723,-0.713 0.296799,-0.48023 1.119728,-0.10937 1.010928,0.45558 -0.110003,0.57117 -0.891558,0.7569 -1.083228,0.25742 z m -11.458815,0.64508 c 0.07676,-0.12419 0.962664,-0.30231 1.968679,-0.39581 2.117956,-0.19684 5.331323,-1.12142 5.331323,-1.53398 0,-0.16734 -0.188505,-0.20219 -0.463021,-0.0856 -2.601083,1.10474 -6.485463,1.54419 -6.78353,0.76744 -0.201036,-0.52389 -1.20183,-0.40007 -1.574626,0.19482 -0.199676,0.31863 -0.179849,0.55701 0.07152,0.85989 0.373462,0.45 1.221136,0.56299 1.449655,0.19324 z m 16.59175,-2.51447 c 0.01723,-0.16633 0.02096,-0.38054 0.0083,-0.47602 -0.01268,-0.0955 1.015018,-0.9277 2.283772,-1.84937 2.341875,-1.70123 6.851454,-5.51288 10.280139,-8.68912 1.3956,-1.29285 2.07679,-1.74556 2.6123,-1.73611 0.41162,0.007 0.85255,-0.18714 1.02117,-0.45024 0.434,-0.67715 -0.10531,-1.38906 -1.05229,-1.38906 -0.65254,0 -0.78435,0.12175 -0.89721,0.82877 -0.0987,0.61819 -0.67011,1.31636 -2.24895,2.74771 -6.562644,5.94959 -11.588143,9.9129 -12.248363,9.65955 -0.695709,-0.26697 -1.377679,0.12487 -1.377679,0.79157 0,0.97482 1.521345,1.50328 1.618832,0.56232 z m 14.697071,-13.51224 c -0.20175,-0.52577 0.54634,-1.12231 0.92836,-0.74029 0.36534,0.36535 0.0916,1.11782 -0.40661,1.11782 -0.20728,0 -0.44207,-0.16989 -0.52175,-0.37753 z m -15.919028,10.69502 c 1.74625,-1.14907 4.306094,-3.06184 5.688542,-4.25059 1.382447,-1.18876 2.799608,-2.38694 3.149246,-2.66263 0.349637,-0.2757 0.560898,-0.57607 0.469469,-0.6675 -0.09143,-0.0914 -0.840916,0.41625 -1.665526,1.12818 -4.45363,3.84507 -6.320102,5.26828 -8.885268,6.77513 -1.848923,1.08612 -2.835627,1.82367 -2.84427,2.12606 -0.01204,0.42131 0.02848,0.42597 0.449787,0.0518 0.254661,-0.22617 1.89177,-1.35137 3.63802,-2.50045 z m -4.564042,0.55001 c 2.98666,-1.7453 5.489381,-3.51084 5.333742,-3.76267 -0.08121,-0.1314 -0.585274,0.10664 -1.120137,0.52898 -0.534864,0.42235 -2.147013,1.49045 -3.582555,2.37358 l -2.610076,1.60567 -1.094091,-0.42187 c -0.601749,-0.23203 -1.282657,-0.65485 -1.513127,-0.93961 -0.585222,-0.72307 -1.412409,-0.50404 -1.516912,0.40166 -0.100706,0.87281 0.507111,1.20533 1.364482,0.74648 0.463274,-0.24794 0.772978,-0.23006 1.503505,0.0868 1.259203,0.54613 1.232632,0.55122 3.235169,-0.619 z m 1.513951,-2.52423 c 0.177097,-0.21339 0.271784,-0.53861 0.210417,-0.72271 -0.0617,-0.1851 0.684479,-0.89379 1.669136,-1.58528 1.635422,-1.14852 1.852825,-1.22987 2.664505,-0.99708 1.360835,0.39028 1.424754,0.3639 3.496528,-1.44296 1.06983,-0.93303 2.230095,-1.7367 2.578367,-1.78593 0.859716,-0.12154 1.056613,-1.41668 0.254096,-1.67139 -0.724219,-0.22985 -1.076083,0.0256 -1.076083,0.78136 0,0.4369 -0.494846,1.0485 -1.653646,2.0438 -2.585119,2.22037 -2.364641,2.1164 -3.5793,1.68784 l -1.074241,-0.37901 -1.508449,1.17134 c -1.523395,1.18294 -1.719191,1.2725 -2.585035,1.1825 -0.613233,-0.0637 -1.240995,0.45558 -1.240995,1.02664 0,0.97739 1.225885,1.43651 1.8447,0.69088 z m -1.454988,-0.41736 c -0.09388,-0.1519 -0.02558,-0.45102 0.151781,-0.66472 0.366507,-0.44162 1.046007,-0.0672 1.046007,0.57641 0,0.42474 -0.946724,0.49454 -1.197788,0.0883 z m 8.604082,-6.08749 c 0.08343,-0.41531 1.082873,-1.51682 2.637785,-2.90719 1.376901,-1.23119 4.340629,-3.93516 6.58606,-6.00884 2.24544,-2.07367 4.28922,-3.77031 4.54175,-3.77031 0.60061,0 1.12079,-0.64379 1.00519,-1.24406 -0.0638,-0.33126 -0.33156,-0.47573 -0.88175,-0.47573 -0.67348,0 -0.80965,0.11796 -0.92242,0.799 -0.10383,0.62711 -1.21378,1.79453 -5.159368,5.42652 -7.249974,6.67373 -7.749643,7.094 -8.542972,7.18549 -0.524729,0.0605 -0.74143,0.25238 -0.806739,0.71428 -0.16846,1.19142 1.305614,1.45981 1.542464,0.28084 z m 7.521801,-0.40015 c 0.369604,-0.3696 0.371623,-0.49539 0.0189,-1.17748 -0.584868,-1.13101 -0.482924,-2.01151 0.332692,-2.87349 0.556989,-0.58865 6.150522,-5.80534 9.556302,-8.91248 0.19912,-0.18166 0.28111,-0.46123 0.1822,-0.62127 -0.11293,-0.18273 -0.42271,-0.002 -0.83272,0.48494 -0.35909,0.42675 -2.73303,2.70444 -5.27543,5.06153 -4.389951,4.06999 -4.622539,4.33513 -4.622539,5.2695 0,0.64786 -0.180723,1.14743 -0.529167,1.46277 -0.60553,0.548 -0.665914,0.94804 -0.211666,1.40229 0.430733,0.43074 0.886135,0.39899 1.381428,-0.0963 z m 10.125224,-9.97937 c 2.52772,-2.28684 2.69702,-2.50388 2.71198,-3.47661 0.009,-0.58732 0.21203,-1.25417 0.46784,-1.53684 0.54634,-0.60369 0.20503,-1.34769 -0.67853,-1.47911 -0.7,-0.10412 -1.03755,0.62036 -0.60887,1.30678 0.16849,0.26979 0.30634,0.9431 0.30634,1.49624 0,0.9632 -0.20829,1.20096 -4.92856,5.62598 -2.71072,2.54116 -5.03243,4.65997 -5.15938,4.70848 -0.12694,0.0485 -0.23081,0.27216 -0.23081,0.49701 0,0.22905 1.19249,-0.71501 2.71198,-2.147 1.49159,-1.4057 3.92519,-3.65341 5.40801,-4.99493 z m -2.08749,6.37152 c 0.17463,-0.17463 0.3175,-0.57841 0.3175,-0.89729 0,-0.41157 1.3626,-1.84142 4.69635,-4.92813 8.21213,-7.60358 9.65242,-8.78863 10.43334,-8.58442 0.74534,0.19491 1.53906,-0.2486 1.53906,-0.85999 0,-1.20163 -1.90892,-1.48347 -2.07514,-0.30639 -0.0499,0.35351 -0.40615,0.88929 -0.79163,1.19063 -2.17471,1.7 -4.94351,4.13956 -9.28453,8.18048 -2.86814,2.66987 -5.15428,4.59353 -5.55302,4.67256 -0.68181,0.13513 -0.98646,0.76097 -0.7149,1.46863 0.17773,0.46316 0.99717,0.49971 1.43297,0.0639 z M 122.11145,106.264 c -0.0776,-0.20224 -0.0451,-0.52309 0.0723,-0.713 0.2968,-0.48023 1.11973,-0.10937 1.01093,0.45559 -0.11,0.57117 -0.89156,0.7569 -1.08323,0.25741 z m -13.66642,3.77201 c 0.32315,-0.17295 0.51177,-0.55327 0.51177,-1.03191 0,-0.62277 0.48391,-1.20311 2.71198,-3.25245 5.2104,-4.79243 9.31854,-7.978372 12.6877,-9.83957 1.43738,-0.794042 1.87299,-0.926622 2.29771,-0.69932 0.70801,0.378913 0.97658,0.354126 1.46601,-0.135299 0.5979,-0.597903 0.52181,-1.625524 -0.14687,-1.983387 -0.80558,-0.431135 -1.81861,0.07364 -1.81861,0.906181 0,0.461544 -0.22549,0.728431 -0.82536,0.976907 -1.31914,0.546405 -5.23072,3.079789 -7.24424,4.691815 -2.10513,1.685373 -7.89135,6.807263 -8.81593,7.803743 -0.39311,0.42368 -0.79775,0.61324 -1.12589,0.52743 -1.1122,-0.29085 -1.83302,1.44568 -0.84014,2.02398 0.58092,0.33835 0.53279,0.33785 1.14187,0.0119 z m -1.1834,-0.6834 c -0.0958,-0.24976 -0.0593,-0.56907 0.0812,-0.70958 0.38234,-0.38234 1.13691,0.0102 1.03516,0.53856 -0.11923,0.61914 -0.8986,0.73853 -1.11637,0.17102 z m 19.52544,-14.765862 c -0.24072,-0.627298 0.0999,-1.260827 0.62362,-1.159964 0.2929,0.05641 0.46382,0.330405 0.46382,0.743535 0,0.754228 -0.8351,1.074024 -1.08744,0.416429 z M 115.25389,109.9924 c 0.17462,-0.17462 0.3175,-0.51899 0.3175,-0.76526 0,-0.46568 2.86165,-2.97662 6.44604,-5.65603 1.73201,-1.29471 2.15295,-1.50287 2.51354,-1.24296 0.83845,0.60437 1.11918,0.63318 1.6336,0.16763 0.65091,-0.58907 0.64956,-0.78688 -0.01,-1.44629 -0.69622,-0.69623 -0.88082,-0.67217 -1.90932,0.24882 -0.47784,0.42789 -1.8213,1.48358 -2.98547,2.34598 -1.16416,0.8624 -3.00963,2.35502 -4.10104,3.31693 -1.17136,1.03239 -2.22828,1.75145 -2.57969,1.75506 -0.44552,0.005 -0.59531,0.16146 -0.59531,0.62348 0,0.97661 0.6249,1.29774 1.27,0.65264 z m 9.40931,-8.0161 c -0.0914,-0.23827 -0.044,-0.55544 0.10537,-0.70483 0.4313,-0.4313 1.25386,-0.14061 1.25386,0.4431 0,0.67301 -1.11874,0.88843 -1.35923,0.26173 z m -8.74785,3.36603 c 3.21813,-2.7197 5.4346,-4.28054 8.10394,-5.706803 l 2.19838,-1.174616 1.66342,0.778411 1.66343,0.778418 1.9861,-1.334233 c 1.60877,-1.080743 2.13155,-1.305136 2.75169,-1.181108 0.94564,0.189129 1.4701,-0.353765 1.35038,-1.397851 -0.0754,-0.657204 -0.19286,-0.743604 -1.0113,-0.743604 -0.81609,0 -0.95989,0.104705 -1.21107,0.881819 -0.21882,0.676991 -0.71685,1.152563 -2.1441,2.047417 l -1.85908,1.165598 -1.62266,-0.70014 -1.62266,-0.700141 -1.12803,0.504212 c -2.92205,1.306109 -12.90505,8.839781 -11.71374,8.839781 0.0886,0 1.25651,-0.92572 2.5953,-2.05716 z m 18.00009,-8.678986 c -0.0881,-0.229565 0.0347,-0.612266 0.27289,-0.850446 0.38954,-0.38954 0.47391,-0.392199 0.83965,-0.02646 0.23003,0.230024 0.33263,0.599348 0.23628,0.850447 -0.21542,0.561375 -1.13662,0.579445 -1.34882,0.02646 z m -1.01385,48.392236 c -7.54852,-0.95134 -15.51476,-3.6616 -21.56354,-7.33633 -2.72873,-1.65775 -7.92553,-5.45178 -7.93292,-5.79159 -0.006,-0.26413 4.21659,-4.28755 4.49951,-4.28755 0.11446,0 0.57662,0.32834 1.02701,0.72965 0.60707,0.5409 0.8189,0.95874 0.8189,1.6153 0,0.77873 0.1837,1.01385 1.52136,1.94728 2.78663,1.94452 7.21003,4.53833 7.20005,4.22199 -0.005,-0.17168 -1.32339,-1.07128 -2.92884,-1.99913 -1.60545,-0.92785 -3.50603,-2.15101 -4.22349,-2.71813 -1.09783,-0.86778 -1.30449,-1.17147 -1.30449,-1.91692 0,-0.71549 -0.1777,-1.0068 -0.92424,-1.51521 -0.50833,-0.34618 -0.92504,-0.69863 -0.92604,-0.78323 -0.004,-0.37562 4.01576,-3.71731 4.30521,-3.57861 0.17776,0.0852 1.45429,0.99021 2.83673,2.0112 4.77561,3.52698 11.29147,6.30964 17.06563,7.28805 3.09204,0.52393 8.70808,0.6106 10.52725,0.16246 2.12379,-0.52318 3.68962,-1.40239 5.23857,-2.94141 1.78353,-1.7721 2.60876,-3.71732 2.81453,-6.63436 0.36675,-5.19889 -2.29698,-9.71569 -7.53303,-12.77354 -2.65135,-1.54838 -8.53378,-6.13367 -8.53378,-6.65199 0,-0.25652 3.44354,-1.16993 6.05995,-1.60742 3.54739,-0.59317 8.71498,-0.43122 10.87457,0.3408 5.1853,1.85368 8.34656,4.67876 10.61921,9.48993 2.61582,5.53765 2.98029,12.24922 0.98962,18.22371 -1.10387,3.31298 -2.70953,5.76384 -5.46787,8.34608 -3.50727,3.28337 -7.93988,5.248 -13.68277,6.06449 -1.74214,0.24769 -9.64096,0.31328 -11.37709,0.0945 z m -9.02867,-4.64436 c 0.44736,-0.71038 -0.39756,-1.45195 -1.22483,-1.07502 -0.89287,0.40682 -3.38051,-0.62088 -3.85,-1.59051 -0.38727,-0.79983 -1.12483,-0.92487 -1.7526,-0.2971 -0.5076,0.5076 -0.51497,0.67034 -0.0586,1.29446 0.27826,0.38055 0.55192,0.44951 1.23863,0.31217 0.99664,-0.19933 3.96045,0.79422 3.96045,1.32764 0,0.70836 1.24554,0.72929 1.68695,0.0284 z m -6.5285,-1.69356 c -0.10204,-0.10205 -0.18553,-0.4121 -0.18553,-0.68901 0,-0.37078 0.15689,-0.48119 0.59531,-0.41892 0.38918,0.0553 0.59531,0.26652 0.59531,0.61009 0,0.52483 -0.65411,0.84882 -1.00509,0.49784 z m 13.70509,-0.0685 c 0,-0.944 -0.76117,-1.31839 -1.43697,-0.7068 -0.45322,0.41016 -0.81296,0.46451 -2.1983,0.33213 -0.91102,-0.0871 -2.36922,-0.40535 -3.24046,-0.7073 -0.87123,-0.30196 -1.7642,-0.50774 -1.98437,-0.4573 -0.67658,0.155 3.99135,1.53278 5.74923,1.69693 0.91061,0.085 1.65566,0.26436 1.65566,0.39851 0,0.13414 0.32742,0.20622 0.72761,0.16018 0.56753,-0.0653 0.7276,-0.2229 0.7276,-0.71635 z m -16.69039,-1.77693 c 0.51461,-0.19747 0.54962,-1.2533 0.0552,-1.66365 -0.19983,-0.16585 -0.56095,-0.22572 -0.80248,-0.13303 -0.71267,0.27347 -5.97793,-3.48446 -5.97793,-4.26658 0,-0.47281 -0.31055,-0.50351 -0.74083,-0.0732 -0.41782,0.41781 -0.4032,0.74083 0.0335,0.74083 0.19306,0 1.46385,0.83344 2.82398,1.85208 1.36013,1.01865 2.56979,1.85208 2.68814,1.85208 0.11835,0 0.38929,0.41672 0.6021,0.92605 0.39414,0.94329 0.57746,1.04974 1.31833,0.76544 z m 7.49683,-1.86337 c 0.95535,-0.36486 1.24692,-0.38079 1.77693,-0.0971 0.90364,0.48361 1.51786,0.17136 1.41508,-0.7194 -0.10592,-0.91795 -0.85831,-1.09514 -1.62882,-0.38359 -0.31444,0.29038 -1.06777,0.6742 -1.67407,0.85295 -0.99927,0.2946 -1.1972,0.26925 -2.11666,-0.27107 -2.68498,-1.57783 -5.92697,-3.87642 -6.06042,-4.29687 -0.15549,-0.4899 -1.03161,-0.64522 -1.28914,-0.22854 -0.2571,0.416 0.15284,1.08221 0.66591,1.08221 0.27046,0 1.47811,0.63216 2.68367,1.4048 4.08973,2.62111 4.83755,3.08689 4.96119,3.09001 0.0679,0.002 0.63775,-0.1933 1.26633,-0.43336 z m -3.15256,-3.23553 c 0.19463,-0.12337 0.31369,-0.5085 0.26458,-0.85584 -0.0745,-0.52715 -0.24358,-0.63314 -1.02275,-0.64125 -1.14258,-0.0119 -5.01967,-2.55937 -5.01967,-3.29823 0,-0.73833 -0.70457,-1.19648 -1.20339,-0.7825 -0.66676,0.55336 -0.37569,1.44009 0.483,1.47141 0.40415,0.0147 0.99946,0.2656 1.32292,0.55747 0.32345,0.29187 1.31676,1.01788 2.20736,1.61335 0.89059,0.59548 1.68311,1.32688 1.76116,1.62534 0.14889,0.56936 0.6107,0.68809 1.20679,0.31025 z M 66.601348,128.4456 c -3.334612,-0.8495 -6.760127,-2.99747 -8.382069,-5.25598 -0.470921,-0.65575 -0.856249,-1.23233 -0.856284,-1.2813 -3.5e-5,-0.049 1.458898,-0.0478 3.242072,0.002 2.608619,0.0737 3.699824,-0.0171 5.584441,-0.46474 4.325154,-1.02723 7.827934,-2.92523 11.254047,-6.09809 l 1.427371,-1.32186 3.102415,2.90211 c 4.155272,3.887 3.935466,3.55663 3.012865,4.52836 -1.271701,1.33943 -4.823841,3.90515 -6.748177,4.87423 -4.262033,2.14632 -8.493877,2.91538 -11.636681,2.11475 z m 1.834203,-3.00066 c 0.385806,-0.40698 1.475372,-1.01542 2.421257,-1.35209 0.945885,-0.33666 2.333884,-0.95863 3.084442,-1.38215 1.178469,-0.66498 1.456745,-0.72807 2.039682,-0.46247 0.790982,0.3604 0.896562,0.30366 3.94896,-2.12196 1.121678,-0.89136 2.039416,-1.74829 2.039416,-1.90428 0,-0.156 -0.491944,0.11332 -1.093208,0.59849 -3.807701,3.0725 -4.413241,3.40563 -5.239813,2.8826 -0.26394,-0.16702 -0.950389,0.0703 -2.248958,0.77751 -2.456877,1.33803 -4.576411,2.02884 -4.981613,1.62364 -0.165316,-0.16532 -0.550606,-0.30058 -0.8562,-0.30058 -1.114201,0 -1.574002,1.16633 -0.774851,1.96548 0.579277,0.57927 0.855543,0.52535 1.660886,-0.32419 z m -1.361957,0.0436 c -0.312736,-0.31274 -0.206111,-1.09117 0.169187,-1.23518 0.5333,-0.20465 1.03266,0.21082 0.925043,0.76963 -0.09815,0.50962 -0.766007,0.79377 -1.09423,0.46555 z m 8.345034,0.15732 c 0.183134,-0.29649 1.106878,-0.96396 2.052763,-1.48325 2.299021,-1.26217 5.801244,-3.84377 5.812112,-4.2843 0.0048,-0.19443 -0.736512,0.23949 -1.647353,0.96427 -2.476746,1.9708 -6.061088,4.08104 -6.383769,3.75836 -0.748745,-0.74875 -1.955374,0.17623 -1.453413,1.11415 0.338312,0.63214 1.209449,0.59491 1.61966,-0.0692 z m 2.683633,-6.8031 c 0.208931,-0.40018 0.810592,-0.95649 1.337025,-1.23623 0.626082,-0.3327 0.867325,-0.59845 0.697457,-0.76832 -0.169868,-0.16986 -0.581347,-0.0144 -1.189629,0.44961 -0.651941,0.49726 -1.116252,0.66253 -1.553191,0.55287 -0.771557,-0.19365 -1.357812,0.42967 -1.117187,1.18781 0.26079,0.82168 1.357837,0.71006 1.825525,-0.18574 z m 51.492039,9.80636 c -1.40785,-0.23327 -4.12818,-1.21551 -6.06925,-2.19146 -2.40634,-1.20989 -6.4966,-3.90656 -7.41357,-4.88769 l -0.65053,-0.69605 3.47075,-3.47075 3.47075,-3.47075 1.30045,1.23125 c 3.4107,3.22926 6.13116,4.82683 10.25703,6.02336 1.80634,0.52386 2.72756,0.61521 6.28354,0.62307 2.29178,0.005 4.16701,0.0878 4.16719,0.1839 1.7e-4,0.0961 -0.46344,0.76137 -1.03025,1.47843 -1.69015,2.1382 -4.63226,4.02694 -7.68257,4.93197 -1.33214,0.39524 -4.44241,0.51995 -6.10354,0.24472 z m -2.09826,-2.88323 c 0.56316,-0.67856 -0.0268,-1.29997 -1.23899,-1.30502 -1.24892,-0.005 -2.85728,-0.85782 -5.99549,-3.17834 -1.27353,-0.94169 -2.38058,-1.71217 -2.46012,-1.71217 -0.74826,0 3.92557,3.4796 6.14906,4.57789 0.94283,0.46571 1.75064,1.0661 1.91256,1.42147 0.32313,0.70919 1.12706,0.80577 1.63298,0.19617 z m 7.12964,-0.0604 c 0.43405,-0.35147 0.54303,-0.63404 0.40827,-1.05861 -0.28066,-0.88429 -0.98709,-1.14548 -1.86553,-0.68974 -0.92893,0.48193 -1.70483,0.26373 -4.92979,-1.38633 -2.03161,-1.03949 -2.35736,-1.13299 -2.97182,-0.85302 -0.63905,0.29117 -0.839,0.1989 -2.70275,-1.24723 -3.18323,-2.46995 -3.28852,-2.54396 -3.28831,-2.31134 1.5e-4,0.17233 3.34618,2.96607 4.91487,4.10364 0.15668,0.11361 0.63638,0.0739 1.066,-0.0883 0.69846,-0.26364 1.00042,-0.17866 2.85316,0.80295 1.13961,0.60379 2.60388,1.23173 3.25393,1.39541 0.82336,0.20732 1.25078,0.47876 1.40894,0.89476 0.20132,0.5295 0.56959,0.83184 1.09182,0.89634 0.093,0.0115 0.43557,-0.19486 0.76121,-0.45855 z m -1.32881,-0.44853 c -0.29185,-0.35165 -0.28464,-0.48668 0.0435,-0.81482 0.53471,-0.53471 1.33158,-0.19946 1.22886,0.517 -0.0996,0.69489 -0.80567,0.86016 -1.27237,0.29782 z m -8.50065,-6.14279 c 0.41606,-0.74346 -0.1315,-1.47774 -0.94897,-1.27256 -0.51585,0.12947 -0.8512,0.002 -1.41221,-0.53508 -0.40465,-0.38767 -0.89334,-0.65232 -1.08599,-0.5881 -0.21552,0.0718 0.0157,0.35665 0.60095,0.7403 0.52318,0.34295 1.07761,0.95836 1.23208,1.36759 0.32141,0.85151 1.21002,1.00998 1.61414,0.28785 z m -55.506945,-0.18122 c -0.547144,-0.65926 -0.230228,-1.33377 0.695037,-1.47926 1.168659,-0.18377 3.253746,-1.70625 3.253746,-2.3758 0,-0.73211 0.299169,-0.67135 1.170026,0.23763 0.829576,0.86589 0.734744,1.53283 -0.150581,1.05902 -0.445187,-0.23826 -0.762092,-0.12851 -1.871469,0.6481 -0.734541,0.51421 -1.471399,1.20745 -1.637461,1.54054 -0.368107,0.73835 -1.016958,0.90276 -1.459298,0.36977 z m 61.694085,0.19759 c -0.1819,-0.0734 -0.33072,-0.34715 -0.33072,-0.60835 0,-0.27542 -0.58735,-0.87942 -1.39828,-1.43793 -1.19312,-0.82172 -1.53281,-0.93631 -2.31511,-0.78092 l -0.91682,0.1821 0.68421,-0.89047 c 0.83579,-1.08776 1.19106,-1.23292 1.36736,-0.55871 0.20691,0.79121 2.5942,2.44501 3.29565,2.28307 0.40131,-0.0926 0.67105,0.0263 0.8599,0.37916 0.35563,0.66449 0.35151,0.6994 -0.1406,1.19151 -0.43387,0.43386 -0.55901,0.46109 -1.10559,0.24054 z m -67.005718,-0.99488 c 0,-0.207 0.446484,-0.51754 0.992187,-0.69011 2.903472,-0.91813 6.628104,-3.43484 10.327328,-6.9781 l 2.19139,-2.099 -0.848816,-0.87576 -0.848815,-0.87575 -1.392883,1.31733 -1.392882,1.31733 h -3.058546 c -1.862643,0 -3.058547,0.10345 -3.058547,0.26458 0,0.40617 -1.217228,0.31386 -1.576962,-0.11959 -0.758557,-0.91401 0.532996,-2.04828 1.49852,-1.31604 0.325985,0.24722 1.310043,0.36311 3.132208,0.36888 l 2.656891,0.008 1.163066,-1.18507 c 0.639686,-0.6518 1.11096,-1.22414 1.047275,-1.27188 -0.06368,-0.0477 -0.620544,-0.47597 -1.237466,-0.95161 l -1.121676,-0.86479 -0.814925,0.58027 c -0.448209,0.31916 -0.925778,0.87185 -1.061265,1.2282 -0.192611,0.50661 -0.405007,0.62967 -0.973815,0.56422 -0.613316,-0.0706 -0.727476,-0.20827 -0.727476,-0.87746 0,-0.71753 0.08177,-0.79375 0.851546,-0.79375 0.515899,0 1.074174,-0.22224 1.416364,-0.56382 l 0.564818,-0.56382 -1.15178,-0.79007 c -4.427346,-3.036956 -10.539933,-4.660542 -14.221357,-3.777382 -0.758328,0.18192 -1.41659,0.287581 -1.462804,0.234802 -0.228784,-0.261283 2.298174,-3.982395 3.781245,-5.568132 2.763634,-2.954947 5.937066,-4.142017 10.221968,-3.823683 1.164167,0.08649 2.831042,0.348164 3.704167,0.581502 3.760664,1.005016 9.023843,4.094175 13.493749,7.919993 3.45304,2.95548 11.509374,10.70922 11.509374,11.0771 0,0.17261 -0.876826,1.18481 -1.948502,2.24933 l -1.948503,1.9355 -1.197335,-1.21451 c -1.045046,-1.06004 -1.338641,-1.21452 -2.308322,-1.21452 -1.057856,0 -1.270535,-0.15184 -4.44726,-3.175 -1.834951,-1.74625 -3.52102,-3.17423 -3.746821,-3.17329 -0.227548,9.5e-4 0.179135,0.49721 0.912369,1.11333 0.727604,0.61139 2.407787,2.16423 3.73374,3.45075 2.275363,2.2077 2.469627,2.33566 3.457377,2.27738 0.914636,-0.054 1.168475,0.0695 2.013789,0.97931 1.074351,1.15636 1.137967,1.33651 0.631229,1.78757 -0.192678,0.1715 -1.121519,1.05884 -2.064091,1.97187 l -1.713767,1.66003 -5.245484,-4.62289 -5.245484,-4.62289 -2.281571,2.03681 c -3.254999,2.90582 -5.712085,4.65145 -8.659144,6.15189 -2.650228,1.34932 -3.544301,1.58455 -3.544301,0.93252 z m 26.190952,-2.3984 c 0.419734,-0.50575 0.157465,-1.19399 -0.454993,-1.19399 -0.557588,0 -4.833877,-3.85228 -4.833877,-4.35458 0,-0.51613 -0.669597,-0.96812 -1.157089,-0.78106 -0.236726,0.0908 -0.430411,0.45009 -0.430411,0.79832 0,0.60294 0.106413,0.67571 1.079814,0.73847 0.647018,0.0417 4.476436,3.74027 4.476436,4.32347 0,0.91473 0.733932,1.17568 1.32012,0.46937 z m 3.878833,-5.64192 c -0.442188,-0.0542 -1.440561,-0.8903 -2.922339,-2.4474 -1.237881,-1.3008 -2.40312,-2.36509 -2.589419,-2.36509 -0.186299,0 0.8199,1.16299 2.235998,2.58442 1.452449,1.45792 2.574723,2.80428 2.574723,3.08883 0,0.46094 0.05915,0.44913 0.686341,-0.13703 l 0.686342,-0.64143 z m -4.207185,-1.30513 c 0.06027,-0.18101 -0.2261,-0.45673 -0.636371,-0.61271 -0.410272,-0.15599 -1.521277,-1.02587 -2.468902,-1.93307 -3.850205,-3.68595 -7.468239,-6.14007 -11.568855,-7.847161 l -1.918883,-0.798833 -1.473269,0.978196 -1.473269,0.978195 -2.103192,-1.025423 c -1.384379,-0.674962 -2.103193,-1.1771 -2.103193,-1.469218 0,-1.101716 -1.623097,-1.360714 -2.281283,-0.364025 -0.304183,0.460623 -0.296596,0.628462 0.05083,1.124479 0.418615,0.597658 1.398467,0.776219 1.84681,0.336551 0.156085,-0.153065 0.991901,0.09764 2.205183,0.661458 1.074606,0.499372 2.152624,0.907949 2.395595,0.907949 0.242972,0 1.021737,-0.367806 1.730589,-0.817347 l 1.288823,-0.817347 1.7961,0.704676 c 2.113379,0.829156 5.44605,2.78668 7.422943,4.36005 2.770655,2.20511 6.291832,5.44016 6.295173,5.78364 0.0042,0.43106 0.843839,0.30445 0.995173,-0.15006 z M 64.182584,97.557745 c -0.222122,-0.602948 0.08307,-1.006176 0.76155,-1.006176 0.530837,0 0.641492,0.11491 0.573264,0.595312 -0.09424,0.663558 -1.124857,0.980788 -1.334814,0.410864 z M 82.0827,108.57121 c 0.228676,-0.22867 0.415774,-0.51175 0.415774,-0.62906 0,-0.35894 -0.755522,-0.86409 -1.113772,-0.74467 -0.185797,0.0619 -0.902249,-0.33356 -1.592115,-0.87886 -0.689866,-0.54531 -1.842931,-1.26934 -2.562365,-1.60895 -0.827709,-0.39072 -1.33938,-0.8118 -1.393343,-1.14664 -0.05887,-0.36532 -0.290095,-0.52917 -0.746738,-0.52917 -0.527022,0 -0.67866,0.14982 -0.746098,0.73714 -0.07897,0.68777 -0.02455,0.73309 0.81248,0.67672 0.95955,-0.0646 1.974508,0.45658 4.36264,2.24032 0.762473,0.5695 1.317769,1.14636 1.233993,1.28192 -0.164751,0.26657 0.352128,1.01703 0.700483,1.01703 0.117308,0 0.400386,-0.1871 0.629061,-0.41578 z m 6.156239,-3.80339 c 0.07407,-0.28324 0.330814,-0.56247 0.570542,-0.62051 0.391845,-0.0949 0.388762,-0.126 -0.03052,-0.30835 -0.573799,-0.24955 -1.253402,0.26397 -1.253402,0.94709 0,0.65431 0.541125,0.64048 0.713382,-0.0182 z m -7.32095,-1.19634 c -0.200871,-0.24203 -0.550712,-0.3524 -0.833028,-0.2628 -0.303785,0.0964 -0.933556,-0.15295 -1.675576,-0.66347 -1.756426,-1.20845 -4.321914,-2.35449 -4.920365,-2.19799 -0.845476,0.2211 -0.879379,0.60889 -0.03853,0.44072 0.817776,-0.16356 1.852882,0.26942 4.616214,1.93094 0.971476,0.58413 1.521354,1.09112 1.521354,1.40271 0,0.6944 0.574392,0.81771 1.168849,0.25093 0.425875,-0.40604 0.451754,-0.5508 0.161082,-0.90104 z m 5.566629,-0.41464 c 0.290396,-0.15541 0.511773,-0.55196 0.511773,-0.91673 0,-0.76031 -0.860698,-1.32752 -1.484601,-0.97837 -0.312091,0.17466 -1.014527,-0.20587 -2.748106,-1.488737 -3.02039,-2.235111 -6.726315,-4.346687 -9.399127,-5.355473 -1.468957,-0.55442 -2.208637,-0.984118 -2.384746,-1.385355 -0.50247,-1.144799 -2.239669,-0.775058 -2.239669,0.476685 0,0.979915 0.663458,1.344043 1.739771,0.954843 0.789081,-0.285335 1.105052,-0.256953 2.357918,0.211805 2.531003,0.946969 5.574766,2.600655 8.855612,4.81128 2.556632,1.722652 3.186281,2.269582 3.186281,2.767702 0,0.34143 0.208359,0.74214 0.463021,0.89047 0.580919,0.33835 0.532793,0.33785 1.141873,0.0119 z m -1.163984,-0.6328 c -0.07968,-0.20764 0.03262,-0.52484 0.249554,-0.70488 0.317536,-0.26353 0.47531,-0.24646 0.80933,0.0876 0.228196,0.2282 0.334257,0.54539 0.235689,0.70488 -0.257245,0.41623 -1.12374,0.35763 -1.294573,-0.0876 z M 69.445697,93.99393 c -0.31321,-0.31321 -0.187375,-1.085697 0.201142,-1.234785 0.483849,-0.18567 1.051439,0.488589 0.850998,1.010929 -0.158131,0.412085 -0.740092,0.535904 -1.05214,0.223856 z m 70.372863,19.35868 c -0.31493,-0.31492 -1.15199,-0.39604 -4.0538,-0.39282 -2.0113,0.002 -3.82909,0.11298 -4.03953,0.24612 -0.63363,0.40088 -1.38139,-0.17761 -1.28689,-0.99557 0.0639,-0.55295 0.24313,-0.72835 0.81111,-0.79368 0.47548,-0.0547 0.78446,0.0604 0.88821,0.33073 0.13387,0.34888 0.74177,0.4146 3.83495,0.4146 2.4202,0 3.67586,-0.0961 3.67586,-0.28135 0,-0.15804 0.37688,-0.24501 0.85989,-0.19844 0.68174,0.0657 0.87881,0.21688 0.95117,0.72955 0.0561,0.39748 -0.0908,0.77977 -0.3813,0.99218 -0.60351,0.44131 -0.77399,0.43436 -1.25967,-0.0513 z m -79.633279,-0.0441 c -0.359412,-0.35941 -0.160532,-1.40098 0.316228,-1.65613 0.354424,-0.18969 0.63276,-0.15755 0.992187,0.11456 0.744505,0.56365 7.390331,0.56204 7.606709,-0.002 0.210013,-0.54728 1.65313,-0.51846 1.866387,0.0373 0.395907,1.03172 -0.500412,1.91699 -1.434673,1.41699 -0.649499,-0.3476 -7.588541,-0.34676 -7.803436,9.5e-4 -0.183697,0.29723 -1.272169,0.35943 -1.543402,0.0882 z m 36.865276,-9.63223 C 91.961601,98.787976 86.1234,93.658792 83.872057,92.098239 c -9.12642,-6.326123 -18.763572,-7.0716 -24.256761,-1.876371 -1.302743,1.23208 -1.458487,1.314054 -1.458487,0.767657 0,-0.781095 1.557726,-3.62061 3.050404,-5.560457 2.849105,-3.702626 5.585983,-5.791931 9.47352,-7.231991 2.039467,-0.755479 2.375288,-0.800098 5.996908,-0.796772 3.426414,0.0031 4.090968,0.08133 6.217708,0.7315 6.12751,1.873258 12.013681,6.172792 23.654031,17.278014 l 3.28112,3.13028 -2.1879,1.972361 -2.1879,1.97237 -2.22873,-2.30517 c -2.1396,-2.212978 -2.27548,-2.305175 -3.397589,-2.305175 -1.122935,0 -1.281025,-0.107602 -4.023861,-2.738794 -1.570253,-1.506336 -3.509848,-3.301737 -4.310213,-3.989779 -0.800365,-0.688042 -1.812396,-1.655484 -2.248958,-2.149871 -0.545657,-0.61793 -0.905259,-0.828867 -1.150512,-0.67487 -0.567462,0.356315 -0.255368,1.232323 0.406181,1.140101 0.612885,-0.08544 1.964479,1.070095 7.128243,6.094229 l 2.94433,2.864713 1.092613,-0.174716 c 1.088966,-0.174134 1.100266,-0.167197 3.389906,2.081642 l 2.29729,2.25636 -2.20188,2.07726 c -1.21104,1.1425 -2.33504,2.10318 -2.49778,2.13484 -0.16274,0.0317 -1.784173,-1.37203 -3.603183,-3.11932 z m 3.915833,-0.0339 c 0.74808,-0.74808 0.0548,-2.04445 -0.9317,-1.74215 -0.353001,0.10817 -7.48205,-6.797935 -7.48205,-7.248076 0,-0.397302 -0.502479,-1.011022 -0.827768,-1.011022 -0.106022,0 -0.37963,0.186862 -0.608017,0.415249 -0.55649,0.556491 -0.09593,1.436834 0.751686,1.436834 0.864696,0 7.673921,6.489215 7.749138,7.384955 0.07857,0.9357 0.779851,1.33307 1.348711,0.76421 z m 5.87375,-4.486005 c 0,-0.122967 -0.25197,-0.223577 -0.55994,-0.223577 -0.36039,0 -1.89257,-1.288204 -4.29947,-3.61485 -3.174373,-3.06852 -3.759542,-3.758309 -3.87184,-4.564062 -0.103282,-0.741065 -0.266028,-0.968171 -0.742167,-1.035668 -0.675145,-0.09571 -1.3745,0.359014 -1.3745,0.893704 0,0.535134 0.768684,1.177127 1.409422,1.177127 0.392526,0 1.774557,1.209296 4.308855,3.770312 2.05205,2.073672 3.81004,3.994878 3.90666,4.269348 0.16908,0.480311 0.19533,0.481251 0.69933,0.02514 0.288,-0.260644 0.52365,-0.574506 0.52365,-0.697474 z M 96.52139,90.74635 c 0,-0.712439 0.500522,-0.951402 0.982738,-0.469186 0.482216,0.482216 0.243254,0.982738 -0.469186,0.982738 -0.331958,0 -0.513552,-0.181594 -0.513552,-0.513552 z m 2.503394,4.654732 c 0.558763,-0.408578 0.308615,-1.086563 -0.312901,-0.848065 -0.265427,0.101854 -1.22177,-0.637829 -2.817508,-2.1792 -5.925427,-5.72355 -11.044396,-9.271564 -16.1126,-11.167822 -1.099114,-0.411232 -1.516634,-0.70298 -1.516634,-1.059773 0,-0.619618 -0.867969,-0.913067 -1.577506,-0.533335 -0.642815,0.344025 -0.712217,1.384431 -0.124867,1.871889 0.330476,0.274271 0.592503,0.279392 1.295148,0.02531 0.751886,-0.271886 1.078542,-0.2406 2.231069,0.213684 3.603275,1.420278 6.905714,3.476538 10.94042,6.812042 3.134176,2.591032 7.079485,6.421275 7.079485,6.87301 0,0.445526 0.299475,0.442994 0.915894,-0.0077 z M 76.594752,80.842195 c -0.193282,-0.503685 0.479834,-1.066729 1.025116,-0.857485 0.230889,0.0886 0.380017,0.369812 0.331395,0.624913 -0.110868,0.581687 -1.153919,0.760517 -1.356511,0.232572 z m 12.626854,11.310213 c 0.220166,-0.573742 -0.350782,-1.224651 -0.939229,-1.070769 -0.286489,0.07492 -1.058827,-0.333526 -1.973035,-1.043424 -0.826245,-0.641594 -1.937376,-1.41108 -2.469179,-1.70997 -0.531803,-0.29889 -1.081005,-0.803338 -1.220448,-1.120994 -0.139443,-0.317656 -0.491657,-0.577557 -0.782699,-0.577557 -0.411574,0 -0.529167,0.176389 -0.529167,0.79375 0,0.711634 0.07916,0.788065 0.765165,0.738796 1.020107,-0.07326 5.386056,2.872926 5.616194,3.789869 0.186146,0.741664 1.270279,0.883371 1.532398,0.200299 z m 6.345703,-3.604485 c 0.432683,-0.691031 -0.119789,-1.385631 -1.117425,-1.404892 -0.980416,-0.01893 -6.106009,-3.677726 -6.527452,-4.659485 -0.315113,-0.734063 -1.147908,-0.807708 -1.558664,-0.137834 -0.233568,0.38091 -0.193728,0.552602 0.195319,0.841723 0.268806,0.199763 0.655501,0.299213 0.859323,0.220999 0.209283,-0.08031 1.637631,0.803364 3.281574,2.030208 2.184404,1.630177 2.91099,2.319604 2.91099,2.762115 0,0.324335 0.08484,0.674542 0.188535,0.778237 0.328102,0.328101 1.466221,0.05057 1.7678,-0.431071 z m -1.583706,-0.03392 c -0.214146,-0.558056 0.08644,-0.958266 0.719721,-0.958266 0.399713,0 0.510935,0.147319 0.447406,0.592609 -0.09867,0.691614 -0.940802,0.95545 -1.167127,0.365657 z m -7.434966,-0.578479 c 0.485083,-0.186144 0.271522,-1.173537 -0.253822,-1.173537 -0.206401,0 -1.617926,-0.663588 -3.136724,-1.474641 l -2.761449,-1.47464 -1.307103,0.734758 -1.307102,0.734759 -2.007606,-0.629617 c -1.148921,-0.36032 -2.007606,-0.776834 -2.007606,-0.97381 0,-0.498608 -1.172938,-1.191087 -1.684795,-0.994669 -0.578681,0.222061 -0.839815,1.33736 -0.42902,1.832337 0.388466,0.468074 1.356036,0.516219 1.783509,0.08875 0.22987,-0.22987 0.803285,-0.122848 2.335024,0.435809 l 2.030331,0.740503 1.371415,-0.741854 1.371415,-0.741854 2.311953,1.260246 c 1.271574,0.693136 2.498682,1.545231 2.726906,1.893546 0.463085,0.706756 0.428796,0.689555 0.964674,0.483919 z m -14.585752,-4.1501 c 0.05549,-0.390741 0.266389,-0.595312 0.613715,-0.595312 0.347325,0 0.55822,0.204571 0.613714,0.595312 0.06935,0.488337 -0.04093,0.595313 -0.613714,0.595313 -0.572787,0 -0.68307,-0.106976 -0.613715,-0.595313 z"
       id="path1" /></g></svg>
